<svg xmlns="http://www.w3.org/2000/svg" xmlns:xlink="http://www.w3.org/1999/xlink" version="1.1" width="2000" height="2000" style="display: block;"><rect id="backgroundrect" width="100%" height="100%" x="0" y="0" fill="none" stroke="none"/><g class="currentLayer" style=""><title>Layer 1</title><g id="svgg" class="selected" transform="translate(0.046000003814697266,-0.020830154418945312) scale(1.9757928848266602) translate(-0.046000003814697266,0.020830154418945312) translate(0.046000003814697266,-0.020830154418945312) scale(1.3477461338043213) translate(-0.046000003814697266,0.020830154418945312) translate(0.046000003814697266,-0.020830154418945312) scale(2.186368703842163) translate(-0.046000003814697266,0.020830154418945312) translate(0.046000003814697266,-0.020830154418945312) scale(0.8571093082427979) translate(-0.046000003814697266,0.020830154418945312) translate(0.046000003814697266,-0.020830154418945312) scale(1) translate(-0.046000003814697266,0.020830154418945312) "><path id="path0" d="" stroke="none" fill="#000000" fill-rule="evenodd"/><path id="path1" d="" stroke="none" fill="#555555" fill-rule="evenodd"/><path id="path2" d="" stroke="none" fill="#999999" fill-rule="evenodd"/><path id="path3" d="M132.433 112.800 L 243.366 112.900 244.033 113.388 C 244.489 113.722,244.605 113.760,244.400 113.507 C 243.620 112.547,250.113 112.597,132.156 112.650 L 21.500 112.699 132.433 112.800 M244.476 118.050 C 243.788 119.218,243.743 119.318,244.094 118.900 C 244.500 118.416,244.850 117.800,244.719 117.800 C 244.666 117.800,244.557 117.913,244.476 118.050 M225.371 134.950 C 225.014 135.472,224.870 135.780,225.051 135.634 C 225.380 135.368,226.260 134.000,226.103 134.000 C 226.057 134.000,225.727 134.428,225.371 134.950 M0.046 206.000 C 0.046 206.385,0.088 206.543,0.138 206.350 C 0.188 206.157,0.188 205.843,0.138 205.650 C 0.088 205.457,0.046 205.615,0.046 206.000 M173.307 222.917 C 173.121 223.202,173.002 223.469,173.045 223.511 C 173.087 223.553,173.279 223.320,173.472 222.994 C 173.903 222.264,173.774 222.204,173.307 222.917 M12.814 270.846 C 12.791 271.083,13.443 272.624,13.529 272.537 C 13.573 272.494,13.433 272.063,13.218 271.579 C 13.004 271.096,12.822 270.766,12.814 270.846 M27.382 301.300 C 27.729 301.978,27.994 302.311,27.997 302.072 C 27.999 301.947,27.815 301.632,27.589 301.372 C 27.265 301.001,27.221 300.986,27.382 301.300 M82.700 354.336 C 83.174 354.799,84.754 356.000,84.889 356.000 C 84.970 356.000,84.600 355.658,84.068 355.239 C 83.094 354.474,82.311 353.957,82.700 354.336 M96.900 371.498 C 97.347 371.869,98.614 372.554,98.300 372.255 C 98.190 372.150,97.740 371.862,97.300 371.615 C 96.860 371.368,96.680 371.315,96.900 371.498 M204.950 399.941 C 205.197 399.989,205.603 399.989,205.850 399.941 C 206.097 399.893,205.895 399.854,205.400 399.854 C 204.905 399.854,204.703 399.893,204.950 399.941 " stroke="none" fill="#c3c3c3" fill-rule="evenodd"/><path id="path4" d="M21.400 112.883 C 21.400 112.984,21.344 113.011,21.275 112.942 C 21.059 112.726,19.593 113.596,19.392 114.058 C 19.287 114.301,19.112 114.635,19.003 114.800 C 18.728 115.216,17.081 118.828,16.897 119.418 C 16.814 119.683,16.481 120.485,16.157 121.200 C 15.833 121.915,15.477 122.725,15.365 123.000 C 15.254 123.275,15.036 123.755,14.881 124.066 C 14.727 124.378,14.600 124.805,14.600 125.016 C 14.600 125.227,14.525 125.400,14.433 125.400 C 14.342 125.400,14.266 125.513,14.265 125.650 C 14.264 125.788,13.934 126.610,13.531 127.478 C 13.129 128.346,12.800 129.218,12.800 129.416 C 12.800 129.614,12.709 129.833,12.597 129.902 C 12.485 129.971,12.445 130.111,12.509 130.214 C 12.572 130.316,12.528 130.400,12.412 130.400 C 12.295 130.400,12.200 130.625,12.200 130.900 C 12.200 131.175,12.100 131.400,11.979 131.400 C 11.857 131.400,11.805 131.525,11.864 131.677 C 11.922 131.829,11.855 132.122,11.715 132.327 C 11.489 132.658,11.204 133.533,11.187 133.949 C 11.183 134.032,11.068 134.280,10.930 134.500 C 10.792 134.720,10.561 135.305,10.416 135.800 C 10.272 136.295,9.991 137.150,9.792 137.700 C 9.372 138.863,8.782 140.710,8.718 141.059 C 8.694 141.191,8.514 141.840,8.317 142.500 C 8.120 143.160,7.930 143.835,7.895 144.000 C 7.859 144.165,7.633 144.930,7.391 145.700 C 7.149 146.470,6.931 147.190,6.907 147.300 C 6.883 147.410,6.804 147.725,6.733 148.000 C 6.662 148.275,6.567 148.732,6.521 149.016 C 6.476 149.300,6.304 149.930,6.139 150.416 C 5.974 150.902,5.793 151.570,5.736 151.900 C 5.647 152.411,4.961 155.520,4.213 158.800 C 4.011 159.685,3.911 160.208,3.678 161.600 C 3.613 161.985,3.530 162.350,3.492 162.411 C 3.271 162.773,1.753 173.107,1.306 177.300 C 1.130 178.950,0.943 180.660,0.890 181.100 C -0.003 188.556,-0.209 205.663,0.494 214.000 C 0.535 214.495,0.627 215.665,0.698 216.600 C 1.427 226.237,3.173 237.311,5.422 246.556 C 5.644 247.467,5.856 248.372,5.894 248.567 C 6.101 249.643,7.678 255.531,7.804 255.700 C 7.887 255.810,8.017 256.215,8.095 256.600 C 8.265 257.443,9.168 260.540,9.406 261.100 C 9.500 261.320,9.634 261.793,9.704 262.150 C 9.774 262.507,9.912 262.800,10.010 262.800 C 10.107 262.800,10.139 262.926,10.080 263.080 C 10.021 263.234,10.069 263.419,10.186 263.492 C 10.304 263.564,10.400 263.825,10.400 264.072 C 10.400 264.318,10.497 264.617,10.615 264.735 C 10.733 264.853,10.863 265.164,10.904 265.425 C 11.023 266.179,11.483 267.400,11.649 267.400 C 11.732 267.400,11.800 267.569,11.800 267.776 C 11.800 268.142,12.117 269.026,12.727 270.361 C 13.052 271.072,13.928 273.377,14.188 274.206 C 14.275 274.484,14.529 275.069,14.752 275.506 C 14.975 275.943,15.161 276.345,15.166 276.400 C 15.179 276.559,15.424 277.213,15.930 278.445 C 16.404 279.598,16.831 280.555,18.186 283.500 C 18.591 284.380,19.226 285.798,19.597 286.650 C 19.969 287.502,20.346 288.200,20.436 288.200 C 20.526 288.200,20.600 288.337,20.600 288.504 C 20.600 288.815,21.626 290.850,22.027 291.332 C 22.149 291.479,22.192 291.600,22.123 291.600 C 22.054 291.600,22.363 292.252,22.811 293.050 C 23.258 293.848,23.674 294.657,23.736 294.850 C 23.797 295.043,23.926 295.200,24.023 295.200 C 24.120 295.200,24.200 295.366,24.200 295.569 C 24.200 295.772,24.376 296.098,24.592 296.293 C 24.808 296.488,24.972 296.704,24.957 296.774 C 24.907 297.008,25.463 298.000,25.644 298.000 C 25.743 298.000,25.768 298.090,25.700 298.200 C 25.632 298.310,25.672 298.400,25.788 298.400 C 25.905 298.400,26.000 298.524,26.000 298.676 C 26.000 298.827,26.134 299.062,26.298 299.198 C 26.462 299.334,26.551 299.517,26.497 299.606 C 26.442 299.694,26.692 300.156,27.053 300.633 C 27.413 301.110,28.017 302.108,28.395 302.850 C 28.773 303.593,29.153 304.200,29.241 304.200 C 29.328 304.200,29.400 304.335,29.400 304.500 C 29.400 304.665,29.470 304.800,29.555 304.800 C 29.640 304.800,29.885 305.137,30.099 305.550 C 30.314 305.963,30.694 306.578,30.945 306.919 C 31.195 307.259,31.400 307.599,31.400 307.673 C 31.400 307.797,32.286 309.226,32.656 309.700 C 32.742 309.810,33.634 311.115,34.639 312.600 C 35.643 314.085,36.587 315.373,36.737 315.462 C 36.886 315.552,36.956 315.709,36.892 315.812 C 36.829 315.916,36.877 316.000,37.000 316.000 C 37.123 316.000,37.175 316.078,37.117 316.173 C 37.058 316.269,37.176 316.498,37.381 316.682 C 37.585 316.867,38.274 317.779,38.912 318.709 C 39.550 319.639,40.146 320.400,40.236 320.400 C 40.326 320.400,40.400 320.535,40.400 320.700 C 40.400 320.865,40.473 321.000,40.561 321.000 C 40.650 321.000,41.138 321.563,41.645 322.250 C 42.152 322.938,42.732 323.681,42.933 323.902 C 43.135 324.123,43.660 324.753,44.100 325.302 C 45.033 326.466,45.615 327.164,45.914 327.477 C 46.031 327.599,46.446 328.117,46.835 328.628 C 47.787 329.876,47.838 329.938,48.979 331.204 C 49.526 331.811,50.159 332.531,50.385 332.804 C 51.777 334.483,53.750 336.534,58.936 341.693 C 62.146 344.887,65.281 347.950,65.902 348.500 C 66.523 349.050,67.317 349.754,67.666 350.064 C 69.190 351.418,69.793 351.931,70.414 352.400 C 70.779 352.675,71.487 353.280,71.989 353.744 C 72.490 354.209,72.961 354.591,73.036 354.594 C 73.110 354.597,73.292 354.720,73.439 354.867 C 73.586 355.015,74.920 356.093,76.403 357.264 C 77.886 358.435,79.303 359.595,79.550 359.842 C 79.798 360.089,80.000 360.222,80.000 360.138 C 80.000 359.980,80.102 360.054,81.060 360.903 C 81.368 361.176,81.706 361.400,81.810 361.400 C 81.915 361.400,82.170 361.570,82.377 361.777 C 82.584 361.984,83.282 362.523,83.927 362.974 C 84.572 363.426,85.460 364.056,85.900 364.374 C 86.340 364.692,86.976 365.121,87.314 365.326 C 87.651 365.532,88.449 366.060,89.088 366.500 C 91.273 368.006,92.500 368.772,92.750 368.786 C 92.888 368.794,93.000 368.870,93.000 368.956 C 93.000 369.042,94.215 369.815,95.700 370.674 C 97.185 371.534,98.400 372.318,98.400 372.418 C 98.400 372.518,98.580 372.600,98.800 372.600 C 99.020 372.600,99.200 372.671,99.200 372.758 C 99.200 372.845,99.807 373.254,100.550 373.667 C 101.293 374.081,102.260 374.631,102.700 374.890 C 103.140 375.149,103.567 375.319,103.650 375.269 C 103.733 375.218,103.801 375.249,103.802 375.338 C 103.802 375.427,104.005 375.598,104.252 375.719 C 105.014 376.090,106.095 376.695,106.200 376.808 C 106.255 376.867,106.975 377.241,107.800 377.638 C 108.625 378.034,110.920 379.139,112.900 380.092 C 117.053 382.091,116.573 381.868,119.799 383.295 C 121.173 383.903,122.363 384.400,122.443 384.400 C 122.523 384.400,123.063 384.611,123.644 384.869 C 124.225 385.127,125.015 385.457,125.400 385.602 C 125.785 385.748,126.205 385.947,126.333 386.044 C 126.461 386.141,126.819 386.266,127.128 386.322 C 127.438 386.378,127.748 386.517,127.818 386.629 C 127.888 386.742,127.980 386.820,128.022 386.803 C 128.065 386.786,128.370 386.877,128.700 387.006 C 129.030 387.134,129.390 387.258,129.500 387.281 C 129.610 387.303,129.978 387.469,130.319 387.650 C 130.659 387.830,131.199 388.021,131.519 388.073 C 131.838 388.125,132.145 388.185,132.200 388.207 C 132.255 388.229,132.368 388.237,132.450 388.224 C 132.532 388.211,132.600 388.283,132.600 388.384 C 132.600 388.485,132.893 388.626,133.250 388.696 C 133.608 388.766,134.080 388.901,134.300 388.996 C 136.058 389.753,139.914 390.992,144.300 392.209 C 145.180 392.454,146.305 392.784,146.800 392.944 C 147.295 393.104,148.285 393.352,149.000 393.496 C 149.715 393.640,151.380 394.043,152.700 394.391 C 154.020 394.740,155.325 395.064,155.600 395.110 C 155.875 395.157,157.135 395.421,158.400 395.696 C 161.170 396.300,161.403 396.342,167.600 397.360 C 170.295 397.803,173.085 398.228,173.800 398.303 C 174.515 398.379,175.280 398.475,175.500 398.517 C 177.094 398.819,186.087 399.571,190.700 399.789 C 193.927 399.942,209.115 399.894,210.600 399.726 C 211.095 399.670,212.618 399.565,213.985 399.493 C 215.352 399.420,216.657 399.332,216.885 399.296 C 217.113 399.260,218.020 399.176,218.900 399.108 C 219.780 399.041,220.725 398.948,221.000 398.903 C 221.275 398.858,222.130 398.765,222.900 398.697 C 224.350 398.568,228.928 397.964,231.200 397.600 C 231.915 397.486,232.815 397.350,233.200 397.298 C 233.585 397.245,234.305 397.115,234.800 397.007 C 235.295 396.900,236.960 396.580,238.500 396.297 C 243.245 395.424,249.801 393.912,253.400 392.858 C 254.335 392.585,255.190 392.340,255.300 392.314 C 255.844 392.187,257.428 391.729,258.500 391.389 C 264.454 389.502,264.534 389.465,265.075 388.324 C 265.498 387.434,265.487 386.275,265.050 385.404 C 264.687 384.682,263.483 383.725,263.175 383.915 C 263.079 383.975,263.000 383.917,263.000 383.786 C 263.000 383.513,261.235 383.640,261.025 383.928 C 260.956 384.023,260.675 384.131,260.400 384.170 C 260.125 384.208,259.810 384.308,259.700 384.392 C 259.590 384.476,258.420 384.878,257.100 385.286 C 255.780 385.693,254.295 386.152,253.800 386.306 C 250.864 387.215,242.402 389.229,238.200 390.018 C 237.045 390.235,235.740 390.502,235.300 390.610 C 234.533 390.800,230.169 391.505,228.500 391.709 C 228.060 391.763,227.088 391.897,226.340 392.007 C 225.592 392.117,224.512 392.251,223.940 392.305 C 223.368 392.360,222.495 392.455,222.000 392.516 C 220.233 392.737,219.882 392.775,218.500 392.894 C 217.730 392.961,216.785 393.057,216.400 393.108 C 216.015 393.159,215.025 393.238,214.200 393.284 C 213.375 393.331,211.395 393.441,209.800 393.531 C 206.338 393.725,193.607 393.736,190.500 393.547 C 185.293 393.232,181.879 392.987,181.600 392.910 C 181.435 392.864,180.580 392.766,179.700 392.692 C 178.820 392.617,177.875 392.529,177.600 392.496 C 177.325 392.463,176.200 392.334,175.100 392.211 C 174.000 392.088,172.650 391.901,172.100 391.796 C 171.550 391.691,170.695 391.558,170.200 391.502 C 169.705 391.445,168.538 391.257,167.607 391.085 C 166.675 390.912,165.640 390.735,165.307 390.691 C 164.700 390.611,161.284 389.934,157.900 389.221 C 152.758 388.139,142.667 385.402,140.843 384.596 C 140.356 384.380,139.884 384.248,139.795 384.303 C 139.707 384.358,139.604 384.315,139.567 384.207 C 139.530 384.100,139.320 383.984,139.100 383.950 C 138.880 383.916,138.610 383.836,138.500 383.772 C 138.301 383.656,137.218 383.346,136.270 383.134 C 136.144 383.106,135.896 382.963,135.720 382.817 C 135.544 382.671,135.400 382.618,135.400 382.700 C 135.400 382.782,135.284 382.753,135.142 382.635 C 135.000 382.517,134.576 382.366,134.200 382.300 C 133.824 382.234,133.416 382.096,133.292 381.994 C 133.169 381.892,132.896 381.779,132.684 381.743 C 132.473 381.707,131.881 381.489,131.368 381.258 C 130.855 381.027,130.225 380.778,129.968 380.703 C 129.711 380.629,129.230 380.448,128.900 380.300 C 128.570 380.153,127.355 379.659,126.200 379.203 C 125.045 378.746,123.650 378.164,123.100 377.909 C 121.028 376.951,119.785 376.400,119.691 376.400 C 119.356 376.400,109.388 371.490,108.500 370.887 C 108.105 370.619,107.651 370.400,107.491 370.400 C 107.331 370.400,107.200 370.310,107.200 370.200 C 107.200 370.090,107.102 370.000,106.982 370.000 C 106.861 370.000,106.534 369.820,106.255 369.600 C 105.975 369.380,105.578 369.200,105.373 369.200 C 105.168 369.200,105.000 369.114,105.000 369.009 C 105.000 368.905,104.663 368.662,104.250 368.471 C 103.838 368.280,103.222 367.915,102.881 367.662 C 102.541 367.408,102.176 367.200,102.070 367.200 C 101.964 367.200,101.577 366.978,101.209 366.707 C 100.841 366.435,100.464 366.261,100.370 366.318 C 100.277 366.376,100.200 366.343,100.200 366.244 C 100.200 366.145,99.728 365.807,99.150 365.494 C 98.573 365.180,97.673 364.617,97.150 364.243 C 96.627 363.869,96.197 363.638,96.194 363.731 C 96.191 363.824,96.096 363.743,95.984 363.550 C 95.872 363.358,95.691 363.200,95.582 363.200 C 95.472 363.200,95.274 363.106,95.142 362.991 C 94.836 362.728,92.937 361.515,91.950 360.953 C 91.538 360.718,91.200 360.453,91.200 360.363 C 91.200 360.273,91.073 360.200,90.917 360.200 C 90.761 360.200,90.603 360.124,90.567 360.031 C 90.530 359.939,89.465 359.162,88.200 358.306 C 86.935 357.449,85.714 356.580,85.487 356.374 C 85.260 356.168,85.004 356.000,84.919 356.000 C 84.613 356.000,83.816 355.250,83.957 355.094 C 84.036 355.007,84.003 354.991,83.884 355.059 C 83.766 355.126,83.378 354.915,83.022 354.591 C 82.666 354.266,82.324 354.000,82.261 354.000 C 82.197 354.000,81.949 353.797,81.708 353.550 C 81.467 353.303,81.051 352.946,80.785 352.759 C 80.072 352.257,79.446 351.764,78.805 351.200 C 78.493 350.925,77.952 350.475,77.603 350.200 C 77.255 349.925,76.808 349.565,76.609 349.400 C 76.411 349.235,75.815 348.740,75.284 348.300 C 74.753 347.860,74.182 347.343,74.015 347.150 C 73.848 346.958,73.619 346.797,73.506 346.794 C 73.392 346.791,72.841 346.364,72.280 345.844 C 71.719 345.325,70.463 344.180,69.489 343.300 C 67.250 341.278,58.400 332.412,58.400 332.192 C 58.400 332.101,58.220 331.970,58.000 331.900 C 57.780 331.830,57.600 331.703,57.600 331.618 C 57.600 331.533,57.011 330.841,56.291 330.081 C 55.571 329.322,54.117 327.620,53.059 326.300 C 52.002 324.980,51.037 323.810,50.914 323.700 C 50.707 323.514,48.345 320.641,47.900 320.035 C 47.790 319.885,47.498 319.558,47.250 319.308 C 47.002 319.058,46.800 318.792,46.800 318.715 C 46.800 318.562,45.804 317.274,44.950 316.323 C 44.648 315.986,44.400 315.593,44.400 315.449 C 44.400 315.305,44.267 315.136,44.104 315.074 C 43.941 315.011,43.609 314.632,43.365 314.230 C 43.121 313.829,42.869 313.455,42.806 313.400 C 42.743 313.345,42.520 313.032,42.311 312.705 C 42.103 312.378,41.859 312.018,41.769 311.905 C 41.184 311.171,40.200 309.778,40.200 309.684 C 40.200 309.504,38.939 307.707,38.762 307.633 C 38.673 307.597,38.600 307.453,38.600 307.314 C 38.600 307.176,38.420 306.899,38.200 306.700 C 37.980 306.501,37.800 306.217,37.800 306.069 C 37.800 305.921,37.712 305.800,37.604 305.800 C 37.496 305.800,37.351 305.575,37.282 305.300 C 37.213 305.025,37.076 304.800,36.978 304.800 C 36.880 304.800,36.800 304.673,36.800 304.517 C 36.800 304.361,36.732 304.203,36.650 304.167 C 36.469 304.086,35.600 302.867,35.600 302.693 C 35.600 302.625,35.195 301.944,34.700 301.179 C 34.205 300.414,33.800 299.737,33.800 299.675 C 33.800 299.613,33.631 299.323,33.424 299.031 C 32.950 298.363,32.143 296.969,31.554 295.800 C 31.305 295.305,31.055 294.855,31.000 294.800 C 30.833 294.633,30.434 293.944,30.016 293.100 C 29.798 292.660,29.353 291.850,29.026 291.300 C 28.100 289.741,23.400 280.217,23.400 279.898 C 23.400 279.832,23.210 279.355,22.977 278.839 C 21.113 274.699,20.197 272.526,20.198 272.250 C 20.199 272.113,20.105 272.000,19.988 272.000 C 19.872 272.000,19.822 271.926,19.878 271.836 C 19.934 271.745,19.863 271.447,19.721 271.172 C 19.578 270.898,19.396 270.412,19.316 270.094 C 19.236 269.775,19.013 269.151,18.821 268.707 C 18.466 267.889,17.956 266.628,17.685 265.900 C 17.603 265.680,17.552 265.430,17.570 265.344 C 17.589 265.258,17.423 264.790,17.202 264.305 C 16.981 263.819,16.800 263.300,16.800 263.151 C 16.800 263.002,16.692 262.772,16.560 262.640 C 16.428 262.508,16.377 262.400,16.446 262.400 C 16.515 262.400,16.296 261.657,15.958 260.750 C 15.620 259.843,15.351 258.943,15.359 258.750 C 15.368 258.558,15.291 258.400,15.188 258.400 C 15.084 258.400,15.000 258.193,15.000 257.940 C 15.000 257.687,14.892 257.372,14.760 257.240 C 14.628 257.108,14.578 257.000,14.650 257.000 C 14.721 257.000,14.648 256.685,14.487 256.300 C 14.326 255.915,14.252 255.600,14.322 255.600 C 14.392 255.600,14.353 255.485,14.236 255.344 C 14.119 255.203,13.976 254.865,13.919 254.594 C 13.861 254.322,13.540 253.110,13.205 251.900 C 12.652 249.899,11.617 245.769,10.900 242.700 C 10.563 241.258,9.196 234.321,8.890 232.500 C 8.739 231.597,7.962 226.249,7.888 225.600 C 7.844 225.215,7.758 224.450,7.696 223.900 C 7.634 223.350,7.550 222.630,7.509 222.300 C 7.468 221.970,7.333 220.620,7.210 219.300 C 7.087 217.980,6.951 216.630,6.908 216.300 C 6.813 215.567,6.615 212.478,6.415 208.600 C 6.255 205.494,6.305 192.349,6.488 189.700 C 6.548 188.820,6.645 187.380,6.703 186.500 C 6.820 184.713,7.156 180.779,7.309 179.400 C 7.364 178.905,7.451 178.050,7.504 177.500 C 7.608 176.416,7.952 173.805,8.097 173.000 C 8.147 172.725,8.367 171.240,8.588 169.700 C 8.808 168.160,9.038 166.675,9.098 166.400 C 9.158 166.125,9.259 165.585,9.321 165.200 C 9.384 164.815,9.518 164.095,9.619 163.600 C 9.720 163.105,9.884 162.250,9.984 161.700 C 10.084 161.150,10.541 159.035,11.000 157.000 C 11.460 154.965,11.915 152.940,12.011 152.500 C 12.171 151.773,13.265 147.722,13.497 147.000 C 13.550 146.835,13.705 146.295,13.843 145.800 C 13.981 145.305,14.182 144.837,14.291 144.761 C 14.399 144.684,14.424 144.558,14.346 144.479 C 14.268 144.401,14.296 144.225,14.409 144.089 C 14.522 143.953,14.589 143.765,14.559 143.671 C 14.503 143.494,14.890 142.371,15.223 141.742 C 15.328 141.545,15.354 141.287,15.281 141.170 C 15.208 141.052,15.250 140.893,15.373 140.816 C 15.497 140.740,15.618 140.435,15.643 140.139 C 15.667 139.842,15.746 139.600,15.819 139.600 C 15.929 139.600,16.169 138.858,16.302 138.100 C 16.322 137.990,16.435 137.664,16.554 137.376 C 17.014 136.261,18.047 133.288,18.057 133.050 C 18.062 132.912,18.127 132.800,18.200 132.800 C 18.273 132.800,18.340 132.688,18.348 132.550 C 18.357 132.412,18.560 131.805,18.800 131.200 C 19.040 130.595,19.243 129.988,19.252 129.850 C 19.260 129.713,19.342 129.600,19.433 129.600 C 19.525 129.600,19.600 129.491,19.600 129.358 C 19.600 129.127,20.731 126.171,21.305 124.900 C 21.454 124.570,21.841 123.715,22.164 123.000 C 22.486 122.285,22.817 121.485,22.897 121.223 C 22.978 120.961,23.238 120.376,23.475 119.923 L 23.906 119.100 130.188 119.050 L 236.470 119.000 236.054 119.450 C 235.825 119.697,235.472 120.178,235.269 120.518 C 235.066 120.858,234.270 122.060,233.500 123.190 C 232.730 124.320,232.010 125.392,231.900 125.572 C 231.790 125.752,231.610 125.966,231.500 126.047 C 231.367 126.145,231.367 126.196,231.500 126.200 C 231.628 126.204,231.626 126.259,231.494 126.353 C 231.310 126.484,228.807 130.114,228.297 130.990 C 228.061 131.395,227.218 132.509,226.843 132.910 C 226.701 133.062,226.605 133.211,226.629 133.243 C 226.715 133.357,225.223 135.548,224.347 136.595 C 224.211 136.757,224.098 136.937,224.095 136.995 C 224.085 137.185,223.214 138.458,222.681 139.061 C 222.561 139.198,222.210 139.712,221.901 140.204 C 221.013 141.622,218.889 144.788,216.805 147.800 C 216.691 147.965,216.039 148.955,215.357 150.000 C 214.674 151.045,214.044 151.930,213.958 151.967 C 213.871 152.003,213.800 152.114,213.800 152.213 C 213.800 152.311,213.440 152.866,213.001 153.446 C 212.561 154.026,212.201 154.607,212.201 154.739 C 212.200 154.870,212.042 155.095,211.849 155.239 C 211.458 155.530,210.400 157.089,210.400 157.374 C 210.400 157.475,210.265 157.609,210.100 157.672 C 209.935 157.736,209.800 157.918,209.800 158.077 C 209.800 158.236,209.732 158.397,209.650 158.433 C 209.568 158.470,209.140 159.040,208.700 159.700 C 208.260 160.360,207.832 160.930,207.749 160.967 C 207.666 161.004,207.648 161.116,207.711 161.217 C 207.773 161.318,207.728 161.400,207.612 161.400 C 207.495 161.400,207.400 161.528,207.400 161.683 C 207.400 161.839,207.320 161.997,207.223 162.033 C 207.002 162.116,203.200 167.777,203.200 168.022 C 203.200 168.120,203.110 168.200,203.000 168.200 C 202.890 168.200,202.800 168.307,202.800 168.437 C 202.800 168.568,202.628 168.860,202.419 169.087 C 202.209 169.314,201.782 169.919,201.469 170.432 C 200.283 172.374,198.326 175.200,198.166 175.200 C 198.075 175.200,198.000 175.335,198.000 175.500 C 198.000 175.665,197.910 175.800,197.800 175.800 C 197.690 175.800,197.600 175.935,197.600 176.100 C 197.600 176.265,197.510 176.400,197.400 176.400 C 197.290 176.400,197.200 176.528,197.200 176.683 C 197.200 176.839,197.126 176.997,197.035 177.033 C 196.944 177.070,196.512 177.642,196.074 178.305 C 194.905 180.076,194.325 180.882,194.100 181.047 C 193.990 181.128,193.972 181.195,194.060 181.197 C 194.228 181.200,193.250 182.592,192.901 182.847 C 192.791 182.928,192.781 182.995,192.881 182.997 C 192.981 182.999,192.926 183.157,192.759 183.350 C 192.438 183.722,189.755 187.623,188.667 189.300 C 188.311 189.850,187.944 190.390,187.852 190.500 C 187.644 190.750,185.438 194.024,184.906 194.871 C 184.689 195.217,184.352 195.674,184.156 195.888 C 183.960 196.101,183.688 196.528,183.551 196.838 C 183.414 197.147,183.234 197.400,183.151 197.400 C 183.068 197.400,183.000 197.535,183.000 197.700 C 183.000 197.865,182.910 198.000,182.800 198.000 C 182.690 198.000,182.600 198.127,182.600 198.283 C 182.600 198.439,182.519 198.597,182.420 198.633 C 182.230 198.704,180.526 201.113,179.633 202.573 C 179.340 203.053,178.673 204.025,178.150 204.732 C 177.628 205.439,177.200 206.098,177.200 206.195 C 177.200 206.292,177.086 206.490,176.947 206.636 C 176.615 206.981,175.200 208.973,175.200 209.095 C 175.200 209.256,173.111 212.297,172.951 212.367 C 172.868 212.403,172.800 212.517,172.800 212.619 C 172.800 212.814,171.728 214.404,170.770 215.629 C 170.457 216.030,170.200 216.440,170.200 216.541 C 170.200 216.642,170.031 216.906,169.824 217.128 C 169.617 217.350,169.201 217.923,168.899 218.402 C 168.597 218.880,168.141 219.497,167.886 219.772 C 167.630 220.048,167.467 220.346,167.523 220.436 C 167.578 220.526,167.528 220.600,167.412 220.600 C 167.295 220.600,167.200 220.735,167.200 220.900 C 167.200 221.065,167.120 221.200,167.023 221.200 C 166.925 221.200,166.696 221.515,166.513 221.900 C 166.331 222.285,166.107 222.600,166.016 222.600 C 165.924 222.600,165.726 222.850,165.575 223.155 C 165.424 223.461,165.050 224.068,164.745 224.505 C 164.439 224.942,163.953 225.660,163.663 226.100 C 162.789 227.430,157.796 234.813,156.868 236.149 C 156.390 236.836,156.000 237.447,156.000 237.506 C 156.000 237.566,155.817 237.814,155.593 238.057 C 155.369 238.301,154.736 239.175,154.186 240.000 C 153.636 240.825,152.132 243.056,150.843 244.958 C 149.554 246.860,148.409 248.570,148.297 248.758 C 147.862 249.490,146.888 250.913,146.650 251.164 C 146.513 251.310,146.400 251.506,146.400 251.600 C 146.400 251.694,146.286 251.890,146.147 252.036 C 146.008 252.181,145.723 252.568,145.513 252.895 C 145.304 253.222,145.057 253.582,144.965 253.695 C 144.874 253.808,144.247 254.755,143.574 255.800 C 142.900 256.845,141.820 258.395,141.174 259.245 C 140.528 260.094,140.000 260.868,140.000 260.964 C 140.000 261.059,139.770 261.399,139.489 261.719 C 139.209 262.039,138.853 262.593,138.700 262.950 C 138.546 263.308,138.332 263.600,138.224 263.600 C 138.115 263.600,137.969 263.782,137.899 264.004 C 137.828 264.226,137.510 264.693,137.191 265.042 C 136.872 265.392,136.648 265.715,136.693 265.760 C 136.739 265.805,136.693 265.946,136.591 266.071 C 135.614 267.279,135.428 267.562,135.539 267.672 C 135.609 267.743,135.566 267.800,135.443 267.800 C 135.320 267.800,135.069 268.115,134.887 268.500 C 134.704 268.885,134.475 269.200,134.377 269.200 C 134.280 269.200,134.200 269.282,134.200 269.381 C 134.200 269.481,133.458 270.661,132.550 272.002 C 131.643 273.344,130.660 274.815,130.366 275.271 C 130.072 275.727,129.741 276.202,129.629 276.328 C 129.517 276.453,128.993 277.207,128.463 278.003 C 127.469 279.498,126.998 280.187,125.802 281.901 C 125.419 282.450,125.104 282.975,125.102 283.066 C 125.101 283.157,124.942 283.347,124.750 283.488 C 124.557 283.629,124.400 283.788,124.400 283.842 C 124.400 283.896,123.793 284.839,123.050 285.938 C 122.308 287.038,121.047 288.902,120.250 290.082 C 119.453 291.262,118.800 292.291,118.800 292.369 C 118.800 292.447,118.642 292.653,118.450 292.826 C 118.258 292.999,117.920 293.444,117.700 293.814 C 117.480 294.183,117.143 294.714,116.952 294.993 C 116.761 295.272,116.499 295.703,116.370 295.950 C 116.241 296.197,116.060 296.400,115.968 296.400 C 115.876 296.400,115.800 296.524,115.800 296.676 C 115.800 296.827,115.669 297.059,115.510 297.192 C 115.350 297.324,114.952 297.898,114.625 298.466 C 114.297 299.035,113.787 299.770,113.492 300.100 C 113.196 300.430,112.864 300.952,112.754 301.260 C 112.644 301.568,112.506 301.772,112.447 301.714 C 112.389 301.655,112.018 302.123,111.624 302.754 C 111.231 303.384,110.726 304.110,110.504 304.366 C 110.282 304.622,110.100 304.892,110.099 304.966 C 110.099 305.040,109.851 305.423,109.549 305.819 C 109.247 306.214,109.000 306.642,109.000 306.769 C 109.000 306.896,108.920 307.000,108.822 307.000 C 108.667 307.000,107.000 309.480,107.000 309.712 C 107.000 309.760,106.858 309.957,106.683 310.150 C 106.509 310.343,106.082 310.938,105.733 311.474 C 102.851 315.908,99.313 321.097,99.004 321.344 C 98.837 321.478,98.768 321.590,98.852 321.594 C 98.935 321.597,98.755 321.881,98.452 322.225 C 98.148 322.568,97.923 322.928,97.950 323.025 C 97.978 323.121,97.914 323.200,97.809 323.200 C 97.704 323.200,97.247 323.825,96.793 324.589 C 96.339 325.353,95.840 326.084,95.684 326.213 C 95.528 326.343,95.400 326.556,95.400 326.686 C 95.400 326.816,95.167 327.204,94.883 327.547 C 94.598 327.891,94.396 328.207,94.433 328.250 C 94.470 328.293,94.355 328.474,94.177 328.652 C 93.999 328.830,93.057 330.173,92.084 331.638 C 91.111 333.102,89.974 334.750,89.558 335.300 C 89.142 335.850,88.801 336.413,88.801 336.550 C 88.800 336.688,88.725 336.800,88.634 336.800 C 88.542 336.800,88.340 337.048,88.185 337.350 C 88.029 337.653,87.656 338.248,87.356 338.674 C 86.071 340.492,86.604 342.614,88.580 343.552 C 89.288 343.887,90.603 343.918,90.798 343.603 C 90.859 343.505,91.149 343.334,91.442 343.222 C 91.763 343.100,92.298 342.515,92.781 341.759 C 93.223 341.067,93.675 340.396,93.783 340.268 C 93.969 340.052,95.253 338.144,95.700 337.423 C 95.810 337.245,95.945 337.055,96.000 337.000 C 96.185 336.815,97.400 334.989,97.400 334.896 C 97.400 334.766,99.133 332.246,99.824 331.371 C 100.141 330.970,100.400 330.593,100.400 330.532 C 100.400 330.471,100.623 330.180,100.896 329.885 C 101.169 329.591,101.344 329.271,101.284 329.175 C 101.225 329.079,101.272 329.000,101.388 329.000 C 101.505 329.000,101.600 328.906,101.600 328.792 C 101.600 328.677,101.692 328.474,101.804 328.342 C 102.744 327.228,103.000 326.866,103.000 326.650 C 103.000 326.513,103.090 326.400,103.200 326.400 C 103.310 326.400,103.400 326.306,103.400 326.191 C 103.400 326.076,103.604 325.763,103.853 325.494 C 104.102 325.225,104.484 324.667,104.701 324.253 C 104.918 323.839,105.153 323.455,105.222 323.400 C 105.291 323.345,105.915 322.445,106.608 321.400 C 107.301 320.355,107.926 319.455,107.997 319.400 C 108.260 319.196,109.400 317.421,109.400 317.214 C 109.400 317.096,109.495 317.000,109.612 317.000 C 109.728 317.000,109.768 316.910,109.700 316.800 C 109.632 316.690,109.672 316.600,109.788 316.600 C 109.905 316.600,110.000 316.469,110.000 316.310 C 110.000 316.150,110.116 315.948,110.258 315.860 C 110.468 315.729,111.869 313.665,113.600 310.933 C 114.284 309.854,114.710 309.287,115.001 309.070 C 115.171 308.944,115.435 308.521,115.588 308.129 C 115.742 307.738,115.942 307.464,116.034 307.521 C 116.125 307.577,116.200 307.483,116.200 307.312 C 116.200 307.140,116.275 307.000,116.366 307.000 C 116.458 307.000,116.660 306.752,116.816 306.450 C 117.210 305.686,117.989 304.530,118.196 304.402 C 118.291 304.344,118.398 304.168,118.434 304.012 C 118.470 303.856,118.746 303.463,119.046 303.138 C 119.346 302.814,119.544 302.470,119.484 302.374 C 119.425 302.279,119.472 302.200,119.588 302.200 C 119.705 302.200,119.800 302.065,119.800 301.900 C 119.800 301.735,119.892 301.600,120.005 301.600 C 120.118 301.600,120.297 301.397,120.403 301.150 C 120.509 300.903,120.763 300.475,120.967 300.200 C 121.171 299.925,121.599 299.295,121.919 298.800 C 122.238 298.305,122.551 297.855,122.614 297.800 C 122.766 297.667,124.677 294.756,124.780 294.500 C 124.824 294.390,124.914 294.255,124.980 294.200 C 125.177 294.036,126.000 292.825,126.000 292.700 C 126.000 292.636,126.094 292.474,126.209 292.342 C 126.395 292.128,127.319 290.855,128.345 289.400 C 128.539 289.125,128.698 288.853,128.699 288.795 C 128.699 288.737,128.815 288.557,128.956 288.395 C 129.345 287.947,131.700 284.542,131.857 284.200 C 131.977 283.939,133.518 281.662,133.954 281.100 C 134.581 280.293,136.000 278.148,136.000 278.007 C 136.000 277.912,136.068 277.803,136.151 277.767 C 136.233 277.730,137.154 276.395,138.195 274.800 C 140.363 271.481,142.257 268.718,143.288 267.369 C 143.680 266.856,144.000 266.339,144.000 266.219 C 144.000 266.098,144.075 266.000,144.166 266.000 C 144.258 266.000,144.460 265.752,144.616 265.450 C 144.772 265.147,144.945 264.855,145.000 264.800 C 145.305 264.496,146.000 263.385,146.000 263.202 C 146.000 263.084,146.135 262.936,146.300 262.872 C 146.465 262.809,146.600 262.646,146.600 262.510 C 146.600 262.374,146.827 262.001,147.106 261.681 C 147.384 261.361,147.847 260.701,148.136 260.212 C 148.425 259.724,148.919 258.959,149.235 258.512 C 149.843 257.651,152.694 253.483,153.200 252.715 C 155.541 249.164,155.987 248.502,156.450 247.895 C 156.643 247.643,156.800 247.339,156.800 247.218 C 156.800 247.098,156.868 247.000,156.950 247.000 C 157.033 246.999,157.367 246.572,157.694 246.050 C 158.021 245.527,158.418 244.967,158.576 244.803 C 159.003 244.365,160.200 242.452,160.200 242.210 C 160.200 242.094,160.275 242.000,160.367 242.000 C 160.513 242.000,161.944 239.969,163.094 238.130 C 163.311 237.784,163.634 237.341,163.812 237.147 C 163.990 236.952,164.259 236.547,164.410 236.247 C 164.560 235.946,164.959 235.340,165.297 234.900 C 165.852 234.176,166.679 232.963,167.344 231.900 C 167.481 231.680,167.651 231.343,167.720 231.150 C 167.790 230.957,167.929 230.800,168.030 230.800 C 168.130 230.800,168.273 230.643,168.346 230.450 C 168.420 230.257,168.556 230.010,168.650 229.900 C 168.744 229.790,169.478 228.691,170.283 227.457 C 171.087 226.224,172.028 224.893,172.373 224.501 C 172.718 224.108,173.000 223.671,173.000 223.529 C 173.000 223.388,173.315 222.919,173.700 222.486 C 174.085 222.054,174.400 221.588,174.400 221.450 C 174.400 221.313,174.505 221.200,174.633 221.200 C 174.762 221.200,174.816 221.149,174.754 221.088 C 174.693 221.026,174.858 220.743,175.121 220.458 C 175.384 220.174,175.600 219.858,175.600 219.757 C 175.600 219.655,175.712 219.446,175.850 219.293 C 176.411 218.667,176.611 218.400,176.517 218.400 C 176.463 218.400,176.640 218.162,176.910 217.871 C 177.179 217.580,177.400 217.263,177.400 217.166 C 177.400 217.014,179.324 214.073,179.602 213.800 C 179.658 213.745,180.512 212.485,181.499 211.000 C 182.486 209.515,183.632 207.850,184.046 207.300 C 184.460 206.750,184.799 206.210,184.799 206.100 C 184.800 205.990,185.035 205.630,185.322 205.300 C 185.993 204.527,187.200 202.654,187.200 202.384 C 187.200 202.270,187.290 202.232,187.400 202.300 C 187.510 202.368,187.600 202.346,187.600 202.252 C 187.600 202.044,189.165 199.610,189.542 199.231 C 189.689 199.083,189.955 198.678,190.133 198.331 C 190.311 197.984,190.646 197.458,190.878 197.162 C 191.693 196.124,192.097 195.499,192.049 195.350 C 192.022 195.268,192.078 195.200,192.173 195.200 C 192.268 195.200,192.741 194.560,193.223 193.777 C 193.705 192.995,194.303 192.104,194.550 191.798 C 194.798 191.492,195.000 191.157,195.000 191.052 C 195.000 190.948,195.180 190.699,195.400 190.500 C 195.620 190.301,195.800 190.061,195.800 189.966 C 195.800 189.871,196.250 189.175,196.800 188.419 C 197.350 187.663,197.800 186.979,197.800 186.900 C 197.800 186.821,198.229 186.158,198.753 185.428 C 199.277 184.698,199.929 183.763,200.203 183.351 C 200.476 182.940,200.768 182.602,200.850 182.601 C 200.933 182.601,201.000 182.506,201.000 182.392 C 201.000 182.277,201.177 181.993,201.393 181.761 C 201.609 181.529,201.743 181.269,201.690 181.183 C 201.637 181.098,201.795 180.886,202.041 180.714 C 202.287 180.541,202.401 180.399,202.295 180.397 C 202.188 180.395,202.198 180.328,202.318 180.247 C 202.437 180.166,202.865 179.605,203.267 179.000 C 203.669 178.395,204.092 177.788,204.207 177.650 C 204.322 177.513,204.364 177.400,204.300 177.400 C 204.236 177.400,204.285 177.288,204.408 177.150 C 204.720 176.800,205.750 175.300,207.600 172.500 C 208.473 171.180,209.459 169.722,209.792 169.260 C 211.121 167.416,214.200 162.752,214.200 162.581 C 214.200 162.482,214.292 162.400,214.404 162.400 C 214.517 162.400,214.718 162.153,214.851 161.850 C 214.985 161.548,215.253 161.182,215.447 161.039 C 215.641 160.895,215.800 160.607,215.800 160.399 C 215.800 160.190,215.922 159.948,216.070 159.860 C 216.415 159.656,217.800 157.720,217.800 157.443 C 217.800 157.328,217.878 157.203,217.974 157.167 C 218.070 157.130,218.475 156.605,218.874 156.000 C 219.273 155.395,219.959 154.377,220.399 153.737 C 220.840 153.097,221.200 152.535,221.200 152.489 C 221.200 152.442,221.525 151.978,221.921 151.458 C 222.318 150.938,222.721 150.308,222.817 150.057 C 222.912 149.805,223.071 149.600,223.171 149.600 C 223.270 149.600,223.463 149.330,223.600 149.000 C 223.737 148.670,223.928 148.400,224.024 148.400 C 224.121 148.400,224.200 148.265,224.200 148.100 C 224.200 147.935,224.280 147.800,224.377 147.800 C 224.475 147.800,224.713 147.463,224.906 147.050 C 225.099 146.638,225.380 146.228,225.529 146.140 C 225.678 146.052,225.800 145.891,225.800 145.782 C 225.800 145.672,225.893 145.474,226.007 145.342 C 226.121 145.209,226.858 144.110,227.643 142.900 C 228.429 141.690,229.191 140.628,229.336 140.540 C 229.481 140.452,229.600 140.250,229.600 140.090 C 229.600 139.931,229.678 139.800,229.773 139.800 C 229.989 139.800,231.063 138.202,230.853 138.194 C 230.769 138.191,230.857 138.096,231.050 137.984 C 231.243 137.872,231.400 137.665,231.400 137.525 C 231.400 137.385,231.622 137.061,231.894 136.806 C 232.165 136.551,232.340 136.265,232.282 136.171 C 232.224 136.077,232.277 136.000,232.400 136.000 C 232.523 136.000,232.573 135.918,232.511 135.817 C 232.448 135.716,232.474 135.604,232.568 135.567 C 232.796 135.477,234.800 132.648,234.800 132.416 C 234.800 132.316,234.867 132.203,234.950 132.167 C 235.032 132.130,235.774 131.065,236.599 129.800 C 237.423 128.535,238.143 127.455,238.199 127.400 C 238.254 127.345,238.714 126.670,239.220 125.900 C 239.726 125.130,240.291 124.275,240.475 124.000 C 240.659 123.725,241.139 123.006,241.541 122.402 C 241.944 121.799,242.437 121.129,242.637 120.915 C 242.837 120.700,243.000 120.407,243.000 120.262 C 243.000 120.118,243.073 120.000,243.163 120.000 C 243.253 120.000,243.536 119.627,243.792 119.171 C 244.049 118.715,244.431 118.169,244.643 117.957 C 245.107 117.493,245.536 115.622,245.302 115.084 C 245.210 114.873,245.124 114.655,245.112 114.600 C 245.042 114.287,244.619 113.812,244.033 113.385 L 243.366 112.900 132.383 112.800 C 65.181 112.739,21.400 112.772,21.400 112.883 " stroke="none" fill="#cccccc" fill-rule="evenodd"/><path id="path5" d="" stroke="none" fill="#ffffff" fill-rule="evenodd"/><path id="path6" d="" stroke="none" fill="#004674" fill-rule="evenodd"/><path id="path7" d="M303.853 54.944 C 304.157 54.989,304.607 54.988,304.853 54.941 C 305.099 54.893,304.850 54.856,304.300 54.857 C 303.750 54.859,303.549 54.898,303.853 54.944 M68.287 57.850 L 67.700 58.500 68.350 57.913 C 68.956 57.365,69.092 57.200,68.937 57.200 C 68.903 57.200,68.610 57.492,68.287 57.850 M52.687 64.450 L 52.100 65.100 52.750 64.513 C 53.108 64.190,53.400 63.897,53.400 63.863 C 53.400 63.708,53.235 63.844,52.687 64.450 M316.457 67.300 C 316.459 67.850,316.498 68.051,316.544 67.747 C 316.589 67.443,316.588 66.993,316.541 66.747 C 316.493 66.501,316.456 66.750,316.457 67.300 M57.687 68.450 L 57.100 69.100 57.750 68.513 C 58.108 68.190,58.400 67.897,58.400 67.863 C 58.400 67.708,58.235 67.844,57.687 68.450 M27.250 99.900 C 27.253 100.340,27.294 100.496,27.341 100.248 C 27.389 99.999,27.387 99.639,27.337 99.448 C 27.287 99.256,27.248 99.460,27.250 99.900 M270.200 111.600 C 269.965 111.930,269.818 112.200,269.873 112.200 C 269.928 112.200,270.165 111.930,270.400 111.600 C 270.635 111.270,270.782 111.000,270.727 111.000 C 270.672 111.000,270.435 111.270,270.200 111.600 M393.646 196.200 C 393.646 196.585,393.688 196.743,393.738 196.550 C 393.788 196.358,393.788 196.043,393.738 195.850 C 393.688 195.658,393.646 195.815,393.646 196.200 M176.200 282.463 C 176.200 282.497,176.493 282.790,176.850 283.113 L 177.500 283.700 176.913 283.050 C 176.365 282.444,176.200 282.308,176.200 282.463 M171.800 287.063 C 171.800 287.097,172.093 287.390,172.450 287.713 L 173.100 288.300 172.513 287.650 C 171.965 287.044,171.800 286.908,171.800 287.063 M191.500 296.400 C 191.930 296.840,192.326 297.200,192.381 297.200 C 192.436 297.200,192.130 296.840,191.700 296.400 C 191.270 295.960,190.874 295.600,190.819 295.600 C 190.764 295.600,191.070 295.960,191.500 296.400 M223.600 325.463 C 223.600 325.497,223.893 325.790,224.250 326.113 L 224.900 326.700 224.313 326.050 C 223.765 325.444,223.600 325.308,223.600 325.463 M220.192 331.050 C 221.020 331.933,221.200 332.092,221.200 331.942 C 221.200 331.910,220.773 331.482,220.250 330.992 L 219.300 330.100 220.192 331.050 M249.800 357.863 C 249.800 357.897,250.093 358.190,250.450 358.513 L 251.100 359.100 250.513 358.450 C 249.965 357.844,249.800 357.708,249.800 357.863 " stroke="none" fill="#0c5586" fill-rule="evenodd"/><path id="path8" d="M192.400 0.134 C 184.095 0.496,176.118 1.273,167.800 2.528 C 156.815 4.186,136.841 9.451,130.300 12.412 C 128.777 13.102,127.938 13.405,127.836 13.302 C 127.779 13.246,127.590 13.322,127.416 13.472 C 127.242 13.621,126.425 13.996,125.600 14.304 C 111.828 19.446,90.001 31.744,79.400 40.337 C 79.235 40.471,77.390 41.949,75.300 43.623 C 71.333 46.799,65.827 51.496,63.600 53.603 C 61.125 55.945,55.800 61.289,55.800 61.431 C 55.800 61.509,55.620 61.630,55.400 61.700 C 55.180 61.770,55.000 61.900,55.000 61.989 C 55.000 62.079,54.663 62.502,54.250 62.929 C 50.489 66.828,45.751 72.459,40.644 79.100 C 39.206 80.970,37.888 82.658,37.715 82.850 C 37.542 83.043,37.400 83.253,37.400 83.319 C 37.400 83.384,36.874 84.172,36.230 85.069 C 31.536 91.616,27.467 98.390,27.382 99.800 C 27.273 101.617,28.897 103.154,30.709 102.950 C 31.539 102.856,33.187 101.903,33.196 101.512 C 33.203 101.205,36.471 95.994,39.476 91.500 C 42.537 86.922,44.633 84.095,48.790 78.937 C 50.280 77.088,51.800 75.198,52.166 74.737 C 56.364 69.461,68.113 57.698,74.400 52.478 C 81.243 46.796,89.027 40.885,91.756 39.300 C 91.945 39.190,92.145 39.052,92.200 38.994 C 92.806 38.350,101.129 33.292,106.986 30.009 C 116.117 24.890,128.351 19.543,138.400 16.280 C 139.885 15.798,141.241 15.322,141.414 15.223 C 141.737 15.036,144.066 14.384,144.600 14.330 C 144.765 14.314,144.945 14.244,145.000 14.176 C 145.245 13.873,153.702 11.698,159.265 10.507 C 165.608 9.149,175.618 7.632,181.664 7.111 C 193.123 6.125,202.512 6.007,213.100 6.716 C 228.502 7.747,242.774 10.354,257.300 14.791 C 258.530 15.166,264.660 17.291,265.200 17.528 C 265.365 17.601,265.590 17.681,265.700 17.707 C 267.985 18.239,279.570 23.176,285.900 26.315 C 291.161 28.924,292.084 29.421,297.500 32.555 C 301.610 34.933,311.152 41.041,311.600 41.580 C 311.655 41.646,311.943 41.835,312.239 42.001 C 312.758 42.289,318.792 46.913,319.781 47.779 C 320.045 48.011,320.315 48.200,320.381 48.201 C 320.446 48.201,320.820 48.496,321.211 48.855 C 321.602 49.214,322.279 49.776,322.716 50.104 C 325.304 52.044,331.206 57.209,332.910 59.024 C 333.465 59.616,334.770 60.916,335.810 61.913 C 338.055 64.066,342.951 69.082,344.209 70.517 C 346.647 73.298,347.366 74.153,349.931 77.315 C 353.389 81.581,355.961 84.857,355.995 85.040 C 356.009 85.117,356.286 85.464,356.611 85.811 C 356.935 86.158,357.200 86.568,357.200 86.721 C 357.200 86.875,357.276 87.000,357.370 87.000 C 357.676 87.000,365.086 98.299,366.420 100.799 C 366.684 101.294,366.949 101.744,367.009 101.799 C 367.287 102.055,370.267 107.303,370.267 107.536 C 370.267 107.681,370.339 107.800,370.427 107.800 C 370.579 107.800,374.481 115.540,376.174 119.200 C 377.271 121.572,379.189 126.121,380.095 128.500 C 380.513 129.600,380.989 130.806,381.151 131.179 C 381.631 132.282,384.045 139.073,384.074 139.400 C 384.088 139.565,384.154 139.745,384.219 139.800 C 384.591 140.113,387.322 149.750,388.555 155.100 C 389.658 159.887,389.783 160.483,390.488 164.335 C 395.405 191.167,394.713 218.874,388.467 245.300 C 387.412 249.765,385.363 257.209,384.696 259.000 C 384.553 259.385,384.056 260.780,383.592 262.100 C 383.128 263.420,382.656 264.725,382.543 265.000 C 382.431 265.275,382.311 265.638,382.277 265.807 C 382.243 265.976,382.060 266.471,381.870 266.907 C 381.680 267.343,381.514 267.745,381.502 267.800 C 381.440 268.082,381.126 268.970,380.900 269.500 C 380.760 269.830,380.349 270.865,379.988 271.800 C 379.198 273.846,376.284 280.658,375.839 281.500 C 375.665 281.830,375.505 282.194,375.485 282.308 C 375.332 283.164,369.014 295.109,368.548 295.422 C 368.448 295.490,368.382 295.580,368.401 295.622 C 368.475 295.784,367.928 296.800,367.768 296.800 C 367.676 296.800,367.619 296.868,367.641 296.950 C 367.815 297.583,356.773 314.600,356.189 314.600 C 356.085 314.600,356.023 314.673,356.050 314.762 C 356.094 314.904,355.520 315.752,354.897 316.467 C 354.786 316.595,354.208 317.330,353.612 318.100 C 353.017 318.870,352.433 319.590,352.315 319.700 C 352.197 319.810,351.732 320.395,351.281 321.000 C 350.452 322.114,347.469 325.765,346.788 326.500 C 346.584 326.720,345.479 327.980,344.332 329.300 C 343.185 330.620,341.809 332.120,341.274 332.633 C 340.738 333.146,338.932 334.946,337.259 336.633 C 331.407 342.535,327.279 346.400,326.827 346.400 C 326.702 346.400,326.600 346.476,326.600 346.568 C 326.600 346.730,322.320 350.315,320.700 351.509 C 320.260 351.834,319.585 352.391,319.200 352.748 C 318.815 353.105,318.433 353.397,318.350 353.398 C 318.268 353.399,318.035 353.558,317.834 353.750 C 316.698 354.838,314.867 356.200,314.728 356.061 C 314.658 355.991,314.600 356.030,314.600 356.149 C 314.600 356.385,312.150 358.200,311.831 358.200 C 311.722 358.200,311.603 358.277,311.567 358.372 C 311.325 358.995,293.665 370.026,292.551 370.250 C 292.413 370.277,292.255 370.350,292.200 370.411 C 291.886 370.758,282.864 375.386,282.308 375.485 C 282.194 375.505,281.808 375.676,281.451 375.865 C 280.123 376.569,279.895 376.598,279.380 376.132 C 279.116 375.892,277.550 374.483,275.900 372.999 C 274.250 371.515,272.855 370.254,272.800 370.197 C 272.514 369.899,261.296 359.730,258.800 357.507 C 257.205 356.086,255.450 354.484,254.900 353.948 C 254.350 353.411,251.516 350.840,248.603 348.236 C 245.690 345.631,242.819 343.028,242.223 342.450 C 241.627 341.873,241.068 341.400,240.981 341.400 C 240.894 341.400,240.703 341.243,240.557 341.050 C 240.160 340.527,237.798 338.334,232.311 333.389 C 231.755 332.888,230.220 331.528,228.900 330.366 C 227.580 329.204,226.095 327.869,225.600 327.398 C 224.477 326.330,219.661 321.897,217.409 319.858 C 217.019 319.505,216.253 318.830,215.707 318.358 C 214.181 317.039,210.261 313.496,208.697 312.022 C 206.372 309.830,204.784 308.371,203.100 306.877 C 198.380 302.692,194.968 299.625,193.900 298.606 C 193.240 297.977,192.169 296.953,191.520 296.331 C 190.870 295.709,190.270 295.200,190.186 295.200 C 190.102 295.200,190.003 295.126,189.967 295.035 C 189.930 294.945,189.045 294.113,188.000 293.187 C 183.032 288.783,175.400 281.757,175.400 281.589 C 175.400 281.485,175.304 281.400,175.186 281.400 C 175.068 281.400,174.509 280.973,173.943 280.450 C 171.958 278.615,171.084 277.821,169.255 276.196 C 167.607 274.731,167.433 274.511,167.629 274.147 C 168.193 273.091,171.445 268.400,171.612 268.400 C 171.715 268.400,171.777 268.320,171.750 268.223 C 171.697 268.036,173.582 265.347,173.846 265.233 C 173.931 265.197,174.000 265.092,174.000 265.001 C 174.000 264.848,177.715 259.248,183.355 250.900 C 184.619 249.030,185.774 247.401,185.923 247.280 C 186.072 247.159,186.137 247.004,186.068 246.935 C 185.999 246.866,186.091 246.753,186.271 246.683 C 186.452 246.614,186.600 246.472,186.600 246.369 C 186.600 246.198,187.251 245.220,191.301 239.300 C 191.978 238.310,194.339 234.800,196.547 231.500 C 198.755 228.200,200.750 225.301,200.981 225.058 C 201.211 224.815,201.400 224.565,201.400 224.502 C 201.400 224.438,202.241 223.152,203.269 221.643 C 204.297 220.134,206.650 216.650,208.497 213.900 C 213.286 206.772,217.465 200.711,217.645 200.633 C 217.730 200.597,217.800 200.482,217.800 200.379 C 217.800 200.276,219.315 197.966,221.168 195.246 C 223.020 192.526,225.241 189.220,226.105 187.900 C 226.968 186.580,228.346 184.555,229.168 183.400 C 229.990 182.245,231.881 179.500,233.371 177.300 C 234.861 175.100,236.152 173.270,236.240 173.233 C 236.328 173.197,236.400 173.076,236.400 172.965 C 236.400 172.713,242.549 163.579,242.920 163.280 C 243.071 163.159,243.137 163.004,243.068 162.935 C 242.999 162.866,243.091 162.753,243.271 162.683 C 243.452 162.614,243.600 162.475,243.600 162.376 C 243.600 162.094,245.035 160.000,245.228 160.000 C 245.323 160.000,245.400 159.882,245.400 159.738 C 245.400 159.593,245.563 159.301,245.761 159.088 C 245.960 158.874,246.138 158.631,246.157 158.547 C 246.194 158.385,247.594 156.273,249.305 153.800 C 249.876 152.975,252.063 149.735,254.166 146.600 C 256.269 143.465,258.378 140.360,258.854 139.700 C 259.329 139.040,262.355 134.585,265.577 129.800 C 268.800 125.015,272.701 119.255,274.246 117.000 C 275.791 114.745,279.172 109.750,281.759 105.900 C 284.347 102.050,286.708 98.585,287.006 98.200 C 287.304 97.815,289.243 94.980,291.313 91.900 C 293.384 88.820,295.151 86.270,295.239 86.233 C 295.328 86.197,295.400 86.077,295.400 85.966 C 295.400 85.662,299.832 79.200,300.041 79.200 C 300.142 79.200,300.172 79.116,300.109 79.014 C 299.879 78.643,300.392 78.603,301.633 78.895 C 306.504 80.044,311.862 77.822,314.561 73.535 C 318.187 67.774,316.319 60.095,310.463 56.694 C 309.933 56.386,309.455 56.082,309.400 56.017 C 309.345 55.953,309.210 55.897,309.100 55.893 C 308.990 55.888,308.270 55.679,307.500 55.427 C 303.003 53.955,297.582 55.945,294.198 60.310 C 291.515 63.771,291.628 70.049,294.448 74.166 L 295.041 75.031 293.490 77.366 C 292.638 78.650,291.864 79.730,291.770 79.767 C 291.677 79.803,291.600 79.916,291.600 80.018 C 291.600 80.251,289.177 83.877,288.961 83.967 C 288.872 84.003,288.800 84.121,288.800 84.228 C 288.800 84.531,284.768 90.400,284.561 90.400 C 284.459 90.400,284.429 90.484,284.492 90.588 C 284.556 90.691,284.449 90.868,284.254 90.982 C 284.059 91.095,283.970 91.191,284.056 91.194 C 284.231 91.201,282.617 93.462,282.363 93.567 C 282.273 93.603,282.200 93.724,282.200 93.835 C 282.200 93.946,280.336 96.796,278.057 100.168 C 275.778 103.541,273.056 107.570,272.007 109.121 C 270.958 110.673,269.023 113.508,267.707 115.421 C 266.391 117.335,263.264 121.960,260.757 125.700 C 258.251 129.440,255.976 132.757,255.700 133.071 C 255.425 133.384,255.200 133.708,255.200 133.791 C 255.200 133.873,254.913 134.336,254.562 134.820 C 254.211 135.304,253.255 136.690,252.437 137.900 C 251.619 139.110,250.871 140.130,250.775 140.167 C 250.679 140.203,250.600 140.323,250.600 140.434 C 250.600 140.607,242.158 153.215,241.315 154.300 C 241.145 154.520,240.495 155.465,239.873 156.400 C 239.250 157.335,238.272 158.775,237.699 159.600 C 237.125 160.425,234.569 164.228,232.018 168.050 C 229.467 171.873,227.280 175.000,227.157 175.000 C 227.034 175.000,226.993 175.060,227.066 175.132 C 227.139 175.205,226.988 175.543,226.731 175.882 C 226.019 176.824,224.779 178.633,221.099 184.100 C 217.623 189.264,211.407 198.416,210.300 200.000 C 209.954 200.495,207.973 203.420,205.897 206.500 C 203.821 209.580,202.073 212.145,202.011 212.200 C 201.950 212.255,201.782 212.529,201.638 212.809 C 201.494 213.089,200.623 214.394,199.703 215.709 C 198.782 217.024,196.655 220.125,194.975 222.600 C 193.296 225.075,191.849 227.130,191.761 227.167 C 191.672 227.203,191.600 227.322,191.600 227.431 C 191.600 227.658,184.493 238.195,184.134 238.500 C 184.005 238.610,183.719 239.047,183.500 239.472 C 183.280 239.897,182.988 240.289,182.850 240.343 C 182.712 240.398,182.600 240.531,182.600 240.639 C 182.600 240.746,181.091 243.054,179.247 245.767 C 177.403 248.480,174.566 252.703,172.942 255.150 C 171.318 257.598,169.887 259.600,169.762 259.600 C 169.636 259.600,169.587 259.654,169.652 259.719 C 169.718 259.785,169.311 260.482,168.748 261.269 C 168.186 262.056,166.059 265.173,164.022 268.195 C 158.678 276.123,158.467 275.036,166.805 282.491 C 168.439 283.951,171.034 286.288,171.701 286.900 C 176.507 291.308,181.255 295.618,182.700 296.882 C 183.690 297.749,185.580 299.465,186.900 300.696 C 190.127 303.707,194.023 307.249,196.644 309.557 C 197.830 310.601,198.800 311.533,198.800 311.627 C 198.800 311.722,198.902 311.800,199.026 311.800 C 199.226 311.800,200.813 313.235,205.070 317.265 C 205.746 317.905,206.488 318.582,206.718 318.768 C 207.286 319.229,210.466 322.103,211.565 323.150 C 212.056 323.618,212.501 324.000,212.553 324.000 C 212.655 324.000,215.007 326.135,219.601 330.400 C 221.201 331.885,223.270 333.775,224.199 334.600 C 225.129 335.425,226.296 336.471,226.794 336.925 C 227.292 337.379,228.690 338.629,229.900 339.703 C 231.110 340.778,232.640 342.177,233.300 342.813 C 234.690 344.153,234.453 343.936,238.203 347.297 C 239.796 348.726,242.900 351.539,245.100 353.549 C 247.300 355.558,249.190 357.282,249.300 357.378 C 249.410 357.475,250.130 358.138,250.900 358.851 C 251.670 359.565,252.795 360.583,253.400 361.115 C 254.005 361.646,254.860 362.416,255.300 362.826 C 255.740 363.236,257.630 364.944,259.500 366.621 C 263.297 370.026,267.039 373.434,268.400 374.726 C 274.964 380.957,278.029 383.400,279.280 383.400 C 281.056 383.400,294.378 376.783,302.233 372.000 C 302.746 371.688,303.218 371.485,303.283 371.549 C 303.347 371.614,303.400 371.573,303.400 371.458 C 303.400 371.343,304.261 370.736,305.312 370.108 C 309.125 367.833,316.420 362.866,320.324 359.887 C 321.252 359.179,322.037 358.600,322.068 358.600 C 322.099 358.600,322.479 358.286,322.912 357.902 C 323.345 357.518,325.050 356.119,326.700 354.793 C 334.324 348.668,344.440 338.935,350.287 332.100 C 351.040 331.220,351.823 330.320,352.028 330.100 C 352.232 329.880,353.487 328.350,354.815 326.700 C 356.144 325.050,357.376 323.588,357.554 323.450 C 357.731 323.313,357.807 323.200,357.723 323.200 C 357.638 323.200,357.968 322.728,358.455 322.150 C 360.718 319.466,368.000 308.943,370.288 305.050 C 370.821 304.143,371.316 303.400,371.388 303.400 C 371.461 303.400,371.627 303.103,371.759 302.739 C 371.890 302.375,372.182 301.880,372.407 301.639 C 372.632 301.398,372.761 301.200,372.694 301.200 C 372.627 301.200,372.744 300.953,372.954 300.650 C 375.246 297.340,381.547 284.582,384.683 276.900 C 385.536 274.810,386.445 272.650,386.702 272.100 C 386.959 271.550,387.412 270.425,387.708 269.600 C 388.462 267.497,391.218 259.363,391.299 259.000 C 391.335 258.835,391.827 257.080,392.390 255.100 C 394.606 247.318,396.977 236.262,397.881 229.500 C 397.939 229.060,398.120 227.710,398.282 226.500 C 401.743 200.695,399.764 171.297,392.910 146.700 C 391.044 140.003,387.898 130.497,386.622 127.700 C 385.962 126.254,385.235 124.524,384.646 123.000 C 383.473 119.961,381.449 115.556,378.674 110.000 C 375.500 103.646,373.948 100.852,370.763 95.761 C 370.233 94.915,369.800 94.180,369.800 94.128 C 369.800 94.077,368.405 91.940,366.700 89.381 C 364.995 86.821,363.600 84.663,363.600 84.585 C 363.600 84.507,363.452 84.386,363.271 84.317 C 363.091 84.247,362.995 84.138,363.060 84.074 C 363.124 84.010,362.957 83.720,362.688 83.431 C 362.420 83.141,362.200 82.823,362.200 82.724 C 362.200 82.625,362.078 82.444,361.928 82.322 C 361.585 82.042,358.600 78.065,358.600 77.888 C 358.600 77.816,358.370 77.577,358.089 77.356 C 357.809 77.135,357.613 76.920,357.656 76.878 C 357.698 76.836,357.435 76.463,357.071 76.051 C 356.708 75.638,355.458 74.130,354.295 72.700 C 350.013 67.439,347.449 64.600,342.192 59.300 C 337.648 54.719,335.536 52.709,332.507 50.082 C 331.631 49.322,330.674 48.475,330.380 48.200 C 330.086 47.925,329.710 47.610,329.544 47.500 C 329.378 47.390,327.230 45.676,324.771 43.690 C 317.280 37.641,310.500 32.919,302.600 28.248 C 301.775 27.760,301.045 27.272,300.978 27.163 C 300.910 27.055,300.820 26.991,300.778 27.021 C 300.735 27.051,300.070 26.711,299.300 26.264 C 294.577 23.525,290.726 21.533,285.100 18.916 C 280.461 16.758,278.084 15.737,273.900 14.101 C 272.030 13.370,270.103 12.591,269.618 12.369 C 267.112 11.228,256.362 7.861,250.000 6.225 C 232.099 1.621,210.542 -0.658,192.400 0.134 " stroke="none" fill="#2a679c" fill-rule="evenodd"/><path id="path9" d="" stroke="none" fill="#000055" fill-rule="evenodd" transform=""/></g></g></svg>